<svg xmlns="http://www.w3.org/2000/svg" viewBox="0 0 504.45 106.19"><defs><style>.a{fill:#3192d0;}.b{fill:#9d9d9c;}.c{fill:#935e34;}.d{fill:#d89c6e;}.e{fill:#ecb28a;}.f{fill:#1d1d1b;}</style></defs><title>logo_classbox_login</title><path class="a" d="M184.83,68.87a10.1,10.1,0,0,1-1.3,4.63,15.91,15.91,0,0,1-3.95,4.69,20.43,20.43,0,0,1-6.69,3.59,28.28,28.28,0,0,1-9.09,1.36Q153,83.14,147,76.87t-6-16.8a27.67,27.67,0,0,1,2.76-12.61,19.82,19.82,0,0,1,8-8.48,27.23,27.23,0,0,1,20.75-1.68,21.79,21.79,0,0,1,6.38,3.4,16.36,16.36,0,0,1,4,4.44,8.8,8.8,0,0,1,1.38,4.4,4.63,4.63,0,0,1-1.55,3.52,5.29,5.29,0,0,1-3.76,1.45,3.78,3.78,0,0,1-2.4-.75,11.32,11.32,0,0,1-2.14-2.4,17.75,17.75,0,0,0-4.44-4.84,10.13,10.13,0,0,0-5.89-1.61,10,10,0,0,0-8.28,4q-3.15,4-3.14,11a21.06,21.06,0,0,0,.8,6,13.71,13.71,0,0,0,2.34,4.68,10,10,0,0,0,3.69,2.93,11.37,11.37,0,0,0,4.76,1,10.71,10.71,0,0,0,6-1.62,14.09,14.09,0,0,0,4.4-4.93,11.29,11.29,0,0,1,2.29-3,4.35,4.35,0,0,1,3-1.11,4.46,4.46,0,0,1,3.52,1.62A5.14,5.14,0,0,1,184.83,68.87Z"/><path class="a" d="M186.24,76.17V25.88a7.84,7.84,0,0,1,1.55-5.27A5.28,5.28,0,0,1,192,18.82a5.48,5.48,0,0,1,4.25,1.77,7.63,7.63,0,0,1,1.61,5.29V76.17a7.53,7.53,0,0,1-1.63,5.29A5.5,5.5,0,0,1,192,83.23a5.23,5.23,0,0,1-4.14-1.83A7.73,7.73,0,0,1,186.24,76.17Z"/><path class="a" d="M232.61,76.68a36.11,36.11,0,0,1-8.14,4.91,22.75,22.75,0,0,1-8.81,1.64,16.63,16.63,0,0,1-7.84-1.77,12.82,12.82,0,0,1-5.2-4.78,12.38,12.38,0,0,1-1.83-6.54,11.65,11.65,0,0,1,3-8.11,15.1,15.1,0,0,1,8.28-4.51c.74-.17,2.56-.55,5.48-1.14s5.42-1.14,7.5-1.64,4.34-1.1,6.77-1.8q-.21-4.59-1.84-6.74c-1.1-1.43-3.35-2.14-6.78-2.14a14.14,14.14,0,0,0-6.65,1.23,10.68,10.68,0,0,0-3.82,3.7c-1.06,1.64-1.81,2.72-2.25,3.25s-1.38.78-2.83.78a5,5,0,0,1-3.38-1.25,4.12,4.12,0,0,1-1.42-3.21,9.79,9.79,0,0,1,2.17-6,15.43,15.43,0,0,1,6.75-4.75A30.37,30.37,0,0,1,223.22,36q7.65,0,12,1.8a11.17,11.17,0,0,1,6.18,5.72,24.85,24.85,0,0,1,1.81,10.36q0,4.08,0,6.93t-.07,6.33a23,23,0,0,0,1.09,6.81,21.66,21.66,0,0,1,1.08,4.57,4.28,4.28,0,0,1-1.68,3.25,5.6,5.6,0,0,1-3.8,1.47,5.13,5.13,0,0,1-3.53-1.68A24.77,24.77,0,0,1,232.61,76.68Zm-.77-16.78a58.21,58.21,0,0,1-7.41,2c-3.24.69-5.49,1.2-6.73,1.53a9,9,0,0,0-3.57,1.91,4.9,4.9,0,0,0-1.7,4,5.84,5.84,0,0,0,2,4.48,7.34,7.34,0,0,0,5.22,1.85A13.52,13.52,0,0,0,226,74.11a10.08,10.08,0,0,0,4.27-3.88q1.57-2.64,1.57-8.67Z"/><path class="a" d="M285.81,68.06a13.46,13.46,0,0,1-9.24,13.4,30.82,30.82,0,0,1-11.11,1.77,27,27,0,0,1-10.7-1.92,15.49,15.49,0,0,1-6.59-4.78,9.66,9.66,0,0,1-2.12-5.75,4.42,4.42,0,0,1,1.36-3.27,4.63,4.63,0,0,1,3.44-1.36,4,4,0,0,1,2.8.89,9.75,9.75,0,0,1,1.87,2.51,12.75,12.75,0,0,0,4.27,4.63,12.9,12.9,0,0,0,6.78,1.53,9.82,9.82,0,0,0,5.71-1.55,4.37,4.37,0,0,0,2.23-3.55,4.81,4.81,0,0,0-2.32-4.46,28.34,28.34,0,0,0-7.62-2.68,63.39,63.39,0,0,1-9.75-3.12,16.05,16.05,0,0,1-6-4.31,9.9,9.9,0,0,1-2.25-6.59,11.59,11.59,0,0,1,2.08-6.58,14.23,14.23,0,0,1,6.14-4.95,23.53,23.53,0,0,1,9.79-1.85,31.81,31.81,0,0,1,8.09.94,20.23,20.23,0,0,1,6,2.5A12.43,12.43,0,0,1,282.31,43a6.84,6.84,0,0,1,1.25,3.73A4.33,4.33,0,0,1,282.22,50a5.29,5.29,0,0,1-3.8,1.27,4.67,4.67,0,0,1-3-1,20.5,20.5,0,0,1-2.87-3.06,10.42,10.42,0,0,0-3.1-2.72,9.76,9.76,0,0,0-4.84-1,9.51,9.51,0,0,0-5.23,1.34,3.92,3.92,0,0,0-2.08,3.34,3.61,3.61,0,0,0,1.53,3,12.75,12.75,0,0,0,4.12,1.93c1.73.51,4.11,1.14,7.14,1.87a38,38,0,0,1,8.81,3.15,14.61,14.61,0,0,1,5.19,4.31A9.6,9.6,0,0,1,285.81,68.06Z"/><path class="a" d="M326.44,68.06a13.46,13.46,0,0,1-9.24,13.4,30.85,30.85,0,0,1-11.11,1.77,27,27,0,0,1-10.7-1.92,15.49,15.49,0,0,1-6.59-4.78,9.59,9.59,0,0,1-2.12-5.75A4.42,4.42,0,0,1,288,67.51a4.63,4.63,0,0,1,3.44-1.36,4,4,0,0,1,2.8.89,9.75,9.75,0,0,1,1.87,2.51,11.14,11.14,0,0,0,11,6.16,9.83,9.83,0,0,0,5.72-1.55,4.37,4.37,0,0,0,2.23-3.55,4.81,4.81,0,0,0-2.32-4.46,28.34,28.34,0,0,0-7.62-2.68,63.39,63.39,0,0,1-9.75-3.12,16.05,16.05,0,0,1-6-4.31,9.9,9.9,0,0,1-2.25-6.59,11.59,11.59,0,0,1,2.08-6.58,14.23,14.23,0,0,1,6.14-4.95,23.49,23.49,0,0,1,9.79-1.85,31.81,31.81,0,0,1,8.09.94,20.34,20.34,0,0,1,6,2.5A12.26,12.26,0,0,1,322.93,43a6.77,6.77,0,0,1,1.26,3.73A4.33,4.33,0,0,1,322.85,50a5.29,5.29,0,0,1-3.8,1.27,4.65,4.65,0,0,1-3-1,20,20,0,0,1-2.87-3.06,10.55,10.55,0,0,0-3.1-2.72,9.76,9.76,0,0,0-4.84-1A9.51,9.51,0,0,0,300,44.8a3.92,3.92,0,0,0-2.08,3.34,3.61,3.61,0,0,0,1.53,3,12.65,12.65,0,0,0,4.12,1.93c1.73.51,4.11,1.14,7.14,1.87a38.17,38.17,0,0,1,8.81,3.15,14.61,14.61,0,0,1,5.19,4.31A9.6,9.6,0,0,1,326.44,68.06Z"/><path class="b" d="M340.43,25.45V43.17A27.09,27.09,0,0,1,347.1,38a17.82,17.82,0,0,1,8.41-1.8,18.58,18.58,0,0,1,10.13,2.74,17.91,17.91,0,0,1,6.76,7.94,29.24,29.24,0,0,1,2.4,12.34,33.24,33.24,0,0,1-1.34,9.67,22.86,22.86,0,0,1-3.89,7.62,17.54,17.54,0,0,1-6.18,5,18,18,0,0,1-8,1.77,19.43,19.43,0,0,1-5-.64,15,15,0,0,1-4-1.68,17.59,17.59,0,0,1-2.83-2.15c-.78-.73-1.8-1.84-3.08-3.31V76.6a7,7,0,0,1-1.57,5,5.23,5.23,0,0,1-4,1.68,5,5,0,0,1-3.93-1.68,7.32,7.32,0,0,1-1.47-5V26a8.47,8.47,0,0,1,1.43-5.33,4.77,4.77,0,0,1,4-1.81A5.09,5.09,0,0,1,339,20.55,7.42,7.42,0,0,1,340.43,25.45ZM341,59.9q0,6.93,3.17,10.65a10.4,10.4,0,0,0,8.3,3.71,9.49,9.49,0,0,0,7.54-3.8q3.17-3.79,3.17-10.9a21.35,21.35,0,0,0-1.32-7.9,11.49,11.49,0,0,0-3.74-5.12,9.19,9.19,0,0,0-5.65-1.8,10.11,10.11,0,0,0-5.9,1.8,12,12,0,0,0-4.08,5.23A20.31,20.31,0,0,0,341,59.9Z"/><path class="b" d="M421,59.65a27.6,27.6,0,0,1-1.61,9.56,21.27,21.27,0,0,1-4.68,7.52,20.63,20.63,0,0,1-7.3,4.82,25.81,25.81,0,0,1-9.56,1.68,25.13,25.13,0,0,1-9.47-1.7,20.93,20.93,0,0,1-12-12.34,27.44,27.44,0,0,1-1.59-9.54A27.54,27.54,0,0,1,376.43,50a21.06,21.06,0,0,1,4.63-7.48,20.41,20.41,0,0,1,7.31-4.78,27.63,27.63,0,0,1,19,0,20.53,20.53,0,0,1,12,12.32A27.59,27.59,0,0,1,421,59.65Zm-11.64,0q0-7.09-3.12-11a10.15,10.15,0,0,0-8.39-4,10.36,10.36,0,0,0-6,1.77,11.1,11.1,0,0,0-4,5.2,21.06,21.06,0,0,0-1.4,8,21,21,0,0,0,1.38,7.94,11.37,11.37,0,0,0,4,5.21,10.27,10.27,0,0,0,6,1.8,10.11,10.11,0,0,0,8.39-4Q409.35,66.66,409.35,59.65Z"/><path class="b" d="M446.58,78.43l-8.41-12.37-8.62,12.37a22.06,22.06,0,0,1-3.17,3.69,4.87,4.87,0,0,1-3.29,1.11,5.48,5.48,0,0,1-3.76-1.39,4.13,4.13,0,0,1-1.55-3.16q0-1.83,2.38-5.23l10.49-15-9.3-12.53q-2.42-3.11-2.42-5.4a4.07,4.07,0,0,1,1.44-3.1,5.41,5.41,0,0,1,3.78-1.32,5,5,0,0,1,3.38,1.15,21.45,21.45,0,0,1,3.12,3.61l7.52,10.28,7.31-10.28a19.8,19.8,0,0,1,3.16-3.65A5.08,5.08,0,0,1,452,36.07a5.6,5.6,0,0,1,3.8,1.3,4,4,0,0,1,1.51,3.12,5.53,5.53,0,0,1-.62,2.53,19.78,19.78,0,0,1-1.89,2.87l-9.3,12.53,10.49,15c1.64,2.36,2.47,4.13,2.47,5.31a4,4,0,0,1-1.53,3.15,5.59,5.59,0,0,1-3.79,1.32,5.12,5.12,0,0,1-3.37-1.15A19.89,19.89,0,0,1,446.58,78.43Z"/><polygon class="c" points="0 16.75 49.05 33.42 50.97 105.65 3.07 81.51 0 16.75"/><polygon class="d" points="50.97 33.77 52.69 106.19 127.99 78.98 130.1 14.6 50.97 33.77"/><polygon class="e" points="0.05 15.2 50.08 32.12 129.02 12.89 77.71 0 0.05 15.2"/><path class="f" d="M473.35,56.44V42.22c-2.64,2-4.42,3.05-5.34,3.05a1.55,1.55,0,0,1-1.16-.52,1.68,1.68,0,0,1-.51-1.21,1.35,1.35,0,0,1,.5-1.17,10.52,10.52,0,0,1,1.76-1,13.44,13.44,0,0,0,3-1.88,12.67,12.67,0,0,0,2-2.2q.89-1.22,1.14-1.5a1.36,1.36,0,0,1,1-.28,1.58,1.58,0,0,1,1.33.64,2.75,2.75,0,0,1,.5,1.76V55.83c0,2.1-.71,3.14-2.14,3.14a2,2,0,0,1-1.53-.64A2.74,2.74,0,0,1,473.35,56.44Z"/><path class="f" d="M485.17,59a2.4,2.4,0,0,1-1.67-.62,2.22,2.22,0,0,1-.71-1.75,2.28,2.28,0,0,1,.68-1.64,2.2,2.2,0,0,1,1.65-.69,2.32,2.32,0,0,1,1.68.68,2.4,2.4,0,0,1,0,3.39A2.35,2.35,0,0,1,485.17,59Z"/><path class="f" d="M504.45,47.35a26.67,26.67,0,0,1-.31,4.41A10.1,10.1,0,0,1,503,55.1a7.51,7.51,0,0,1-2.75,2.84,7.47,7.47,0,0,1-8-.34,8.18,8.18,0,0,1-2.84-3.72,13.85,13.85,0,0,1-.71-2.87,23.88,23.88,0,0,1-.23-3.39,33.78,33.78,0,0,1,.25-4.25,14.35,14.35,0,0,1,.78-3.25,7,7,0,0,1,6.88-4.61,7.79,7.79,0,0,1,2.92.52,6.76,6.76,0,0,1,2.31,1.53,8.78,8.78,0,0,1,1.68,2.49A18,18,0,0,1,504.45,47.35ZM500.17,47a25.94,25.94,0,0,0-.34-4.68,5.76,5.76,0,0,0-1.16-2.75,2.83,2.83,0,0,0-2.25-.93,2.9,2.9,0,0,0-2.87,2.08,19.08,19.08,0,0,0-.8,6.4,27.46,27.46,0,0,0,.34,4.81,6.09,6.09,0,0,0,1.16,2.84,3,3,0,0,0,4.45,0,6.2,6.2,0,0,0,1.14-2.86A28.91,28.91,0,0,0,500.17,47Z"/></svg>